<svg width="41" height="41" viewBox="0 0 41 41" fill="none" xmlns="http://www.w3.org/2000/svg">
<circle cx="20.5" cy="20.5" r="20.5" fill="#20264E"/>
<path d="M20.5 30.7143C24.2143 30.7143 27.5714 29.3571 27.5714 26.7857V15.3571C27.5714 12.7857 24.2143 11.4286 20.5 11.4286C16.7857 11.4286 13.4286 12.7857 13.4286 15.3571V26.7857C13.4286 29.3571 16.7857 30.7143 20.5 30.7143ZM20.5 28.75C16.9643 28.75 14.6071 27.5357 14.6071 26.7857V25.6071C16.0357 26.3929 17.8571 26.875 20.5 26.875C23.1429 26.875 24.9643 26.3929 26.3929 25.6071V26.7857C26.3929 27.5357 24.0357 28.75 20.5 28.75ZM20.5 13.3929C24.0357 13.3929 26.3929 14.6071 26.3929 15.3571C26.3929 16.1071 24.0357 17.3214 20.5 17.3214C16.9643 17.3214 14.6071 16.1071 14.6071 15.3571C14.6071 14.6071 16.9643 13.3929 20.5 13.3929ZM14.6071 17.9643C16.0357 18.75 17.8571 19.2321 20.5 19.2321C23.1429 19.2321 24.9643 18.75 26.3929 17.9643V19.1429C26.3929 19.8929 24.0357 21.1071 20.5 21.1071C16.9643 21.1071 14.6071 19.8929 14.6071 19.1429V17.9643ZM14.6071 21.8214C16.0357 22.6071 17.8571 23.0893 20.5 23.0893C23.1429 23.0893 24.9643 22.6071 26.3929 21.8214V23C26.3929 23.75 24.0357 24.9643 20.5 24.9643C16.9643 24.9643 14.6071 23.75 14.6071 23V21.8214Z" fill="white"/>
</svg>

